HIERARCHY
ROOT Hips
{
  OFFSET 3.13124 94.3669 -3.18751
  CHANNELS  6 Xposition Yposition Zposition Zrotation Xrotation Yrotation
  JOINT LeftUpLeg
  {
    OFFSET 8.64259 1.95398 -2.38835
    CHANNELS 3 Zrotation Xrotation Yrotation
    JOINT LeftLeg
    {
      OFFSET 43.7702 0 0
      CHANNELS 3 Zrotation Xrotation Yrotation
      JOINT LeftFoot
      {
        OFFSET 40.6238 0 0
        CHANNELS 3 Zrotation Xrotation Yrotation
        JOINT LeftToeBase
        {
          OFFSET 12.7242 0 0
          CHANNELS 3 Zrotation Xrotation Yrotation
          End Site
          {
            OFFSET 0 0 0
          }
        }
      }
    }
  }
  JOINT RightUpLeg
  {
    OFFSET -8.2249 1.95398 -2.59336
    CHANNELS 3 Zrotation Xrotation Yrotation
    JOINT RightLeg
    {
      OFFSET 43.5653 0 0
      CHANNELS 3 Zrotation Xrotation Yrotation
      JOINT RightFoot
      {
        OFFSET 40.6238 0 0
        CHANNELS 3 Zrotation Xrotation Yrotation
        JOINT RightToeBase
        {
          OFFSET 12.7242 0 0
          CHANNELS 3 Zrotation Xrotation Yrotation
          End Site
          {
            OFFSET 0 0 0
          }
        }
      }
    }
  }
  JOINT Spine
  {
    OFFSET 0.165834 0.87714 6.61349
    CHANNELS 3 Zrotation Xrotation Yrotation
    JOINT Spine1
    {
      OFFSET 7.38962 1.71661e-005 0
      CHANNELS 3 Zrotation Xrotation Yrotation
      JOINT Spine2
      {
        OFFSET 11.9445 1.14441e-005 0
        CHANNELS 3 Zrotation Xrotation Yrotation
        JOINT Spine3
        {
          OFFSET 14.7254 4.19617e-005 0
          CHANNELS 3 Zrotation Xrotation Yrotation
          JOINT Spine4
          {
            OFFSET 10.9679 0 0
            CHANNELS 3 Zrotation Xrotation Yrotation
            JOINT RightShoulder
            {
              OFFSET 2.46616 -1.6653 3.69651
              CHANNELS 3 Zrotation Xrotation Yrotation
              JOINT RightArm
              {
                OFFSET 13.0012 0 0
                CHANNELS 3 Zrotation Xrotation Yrotation
                JOINT RightForeArm
                {
                  OFFSET 28.7848 1.52588e-005 0
                  CHANNELS 3 Zrotation Xrotation Yrotation
                  JOINT RightHand
                  {
                    OFFSET 26.5688 1.52588e-005 0
                    CHANNELS 3 Zrotation Xrotation Yrotation
                    End Site
                    {
                      OFFSET 0 0 0
                    }
                  }
                }
              }
            }
            JOINT LeftShoulder
            {
              OFFSET 2.38034 -1.29275 -3.75231
              CHANNELS 3 Zrotation Xrotation Yrotation
              JOINT LeftArm
              {
                OFFSET 16.3182 6.10352e-005 0
                CHANNELS 3 Zrotation Xrotation Yrotation
                JOINT LeftForeArm
                {
                  OFFSET 27.0901 0 0
                  CHANNELS 3 Zrotation Xrotation Yrotation
                  JOINT LeftHand
                  {
                    OFFSET 24.5451 1.52588e-005 0
                    CHANNELS 3 Zrotation Xrotation Yrotation
                    End Site
                    {
                      OFFSET 0 0 0
                    }
                  }
                }
              }
            }
            JOINT Neck
            {
              OFFSET 5.0226 -0.0266342 0
              CHANNELS 3 Zrotation Xrotation Yrotation
              JOINT Head
              {
                OFFSET 6.69363 2.86102e-005 0
                CHANNELS 3 Zrotation Xrotation Yrotation
                End Site
                {
                  OFFSET 0 0 0
                }
              }
            }
          }
        }
      }
    }
  }
}
MOTION
Frames:	5
Frame Time:	0.0333333
-5.71694 97.0784 -10.0051 -20.3179 -89.9969 -20.2246 -172.261 2.6683 89.939 -9.25684 7.41416 2.1885 63.57 0.961573 0.481179 28.7808 5.02252e-006 2.6538e-006 179.733 1.95283 89.6914 -7.71332 -0.138334 -0.0177108 62.7872 -1.18005 -0.595905 28.7808 1.40943e-005 2.37198e-005 0.00757088 6.3408 -90.0952 14.1935 -0.0104087 9.35436e-007 2.52251 6.75835e-007 2.38335e-007 -20.0126 0.00429715 -5.19975e-006 -1.59028e-015 0.00430432 2.13538e-018 101.067 -18.4095 -84.9057 6.90902 42.5736 -29.6821 -0.427251 0.581279 -8.03981 -5.37983 -0.320002 -0.0162397 -79.1128 -21.5707 94.0242 9.23397 -29.6994 -17.2413 5.18746 30.8999 -8.18732 -1.82104 -0.065649 0.87252 1.76192 0.00295682 0.00280333 -7.42046 -0.00110497 -0.00435154 
-5.68522 97.0546 -10.003 -53.9758 -89.9283 -53.8595 -172.309 2.5889 89.9248 -9.02724 7.28428 2.17381 63.6139 1.06046 0.542756 28.7808 5.02252e-006 2.6538e-006 179.711 2.03508 89.6943 -7.77982 -0.244431 -0.0177109 62.7583 -1.27989 -0.649922 28.7808 1.40943e-005 2.37198e-005 0.0108332 6.34008 -90.1351 14.1935 -0.0104087 9.35436e-007 2.52251 6.75835e-007 2.38335e-007 -20.0126 0.00429715 -5.19975e-006 -6.36111e-015 0.00430432 4.65902e-018 101.085 -18.377 -85.0059 6.9862 42.5993 -29.7419 -0.481363 0.581344 -7.99417 -5.37983 -0.320002 -0.0162397 -79.0082 -21.5101 94.1507 9.24817 -29.4813 -17.9782 4.34291 31.1524 -6.52809 -1.18543 -0.0456147 -0.0246482 1.87298 0.0458601 0.0374714 -7.55283 -0.0188592 -0.068433 
-5.67488 97.048 -9.99682 -130.029 -89.9606 -129.891 -172.252 2.54458 89.9541 -9.09853 7.22167 2.10833 63.7814 1.19413 0.62102 28.7808 5.02252e-006 2.6538e-006 179.721 2.15408 89.7043 -8.20049 -0.115186 -0.0177108 63.0288 -1.14971 -0.578753 28.7808 1.40943e-005 2.37198e-005 0.0100804 6.34032 -90.128 14.1934 -0.0104087 4.71674e-005 2.52241 6.75835e-007 4.64476e-005 -20.0127 0.00429715 4.10631e-005 -9.86604e-005 0.00430432 4.58943e-005 101.067 -18.3071 -85.0925 6.98917 42.5659 -29.5938 -0.470118 0.581372 -7.97474 -5.37983 -0.320002 -0.0162397 -79.045 -21.3978 94.0332 9.18128 -29.7666 -17.1661 5.49325 31.4626 -8.6833 -1.97237 -0.070847 1.20556 1.70151 0.0239513 -0.078699 -7.40468 -0.0353766 -0.0466903 
-5.64442 96.9618 -9.98761 -175.541 -89.9437 -175.393 -172.295 2.39429 89.9029 -8.93574 7.59797 2.18225 64.2977 2.51828 1.38071 28.7808 5.02252e-006 2.6538e-006 179.697 3.10593 89.707 -10.2114 -0.123961 -0.0168852 63.7666 -1.36182 -0.707301 28.7808 1.40943e-005 2.37198e-005 0.0124872 6.33927 -90.1596 14.1954 -0.0104087 -0.000920339 2.52448 -0.000228711 -0.000913016 -20.0107 0.00429715 -0.000898558 0.00196839 0.00430432 -0.000899514 101.038 -18.3701 -85.0915 6.89088 42.5741 -29.6047 -0.428642 0.581363 -7.98103 -5.37983 -0.320002 -0.0162397 -79.0724 -21.2798 94.0213 9.07446 -29.8473 -16.9266 5.91859 31.5304 -9.47595 -2.28826 -0.0862476 1.43688 1.80087 -0.0107141 -0.144016 -7.62983 -0.0458264 0.00441576 
-5.62103 97.0656 -9.98906 -88.7207 -89.9929 -88.5783 -172.341 2.48931 89.899 -8.94384 7.13948 2.1498 63.6541 1.12297 0.581755 28.7808 5.02252e-006 2.6538e-006 179.701 0.973226 89.6655 -5.74884 0.0175782 -0.00353638 62.227 -0.732343 -0.320218 28.7808 1.40943e-005 2.37198e-005 0.0140536 6.31243 -90.1721 14.2491 -0.0104087 -0.0264268 2.57816 -0.00462446 -0.0262517 -19.957 0.00429715 -0.0262487 0.0556373 0.00430432 -0.0262533 100.967 -18.1495 -85.1695 7.08963 42.4924 -29.6484 -0.458419 0.581364 -7.98014 -5.37983 -0.320002 -0.0162397 -79.163 -21.3616 93.9025 9.10836 -29.7735 -17.1048 5.64882 31.6878 -8.93992 -2.02098 -0.0731921 1.27514 1.47016 -0.052447 0.0249126 -7.53383 -0.049687 -0.0982942 
